<?xml version="1.0" encoding="UTF-8"?><svg id="uuid-8e2e0bb8-b12f-4452-8fef-0f2698712ef2" xmlns="http://www.w3.org/2000/svg" width="512" height="512" viewBox="0 0 512 512"><circle cx="256" cy="256" r="256" fill="#fff" stroke-width="0"/><path d="M126.35,435.2V76.8h131.89c68.8,0,110.28,33.28,110.28,89.17,0,38.75-27.32,71.28-64.58,77v4.22c47.69,3.48,81.71,39.49,81.71,85.94,0,62.84-47.44,102.08-124.19,102.08H126.35ZM195.4,224.33h40.73c38.99,0,61.35-16.89,61.35-45.7,0-30.8-20.61-47.44-58.37-47.44h-43.71v93.14ZM239.61,379.81c49.18,0,72.52-16.64,72.52-52.9,0-34.03-24.59-50.92-73.02-50.92h-43.71v103.82h44.21Z" fill="#000" stroke-width="0"/></svg>