<?xml version="1.0" encoding="UTF-8"?><svg id="uuid-41fe5845-7f13-4cd3-9dcd-a173d9b62028" xmlns="http://www.w3.org/2000/svg" width="512" height="512" viewBox="0 0 512 512"><circle cx="256" cy="256" r="256" fill="#fff" stroke-width="0"/><path d="M153.43,357.68v-203.11h-8.1c-12.5,0-21.4-2.41-26.72-7.22-5.32-4.81-7.98-11.1-7.98-18.87s2.66-14.06,7.98-18.87c5.32-4.81,14.22-7.22,26.72-7.22h130.17c31.07,0,56.05,8.65,74.96,25.96,18.91,17.31,28.36,37.86,28.36,61.67,0,11.31-2.19,21.95-6.58,31.91-4.39,9.96-11.06,19.16-20.01,27.6,16.38,9.79,28.66,21.23,36.85,34.32,8.19,13.08,12.28,27.9,12.28,44.45,0,13.17-2.95,25.41-8.86,36.72-4.39,8.61-9.79,15.45-16.21,20.51-8.61,7.09-19.16,12.87-31.66,17.35-12.49,4.47-28.11,6.71-46.85,6.71h-152.46c-12.5,0-21.4-2.41-26.72-7.22-5.32-4.81-7.98-11.1-7.98-18.87s2.7-13.8,8.1-18.61c5.4-4.81,14.27-7.22,26.59-7.22h8.1ZM205.35,230.04h56.98c20.43,0,37.4-5.15,50.9-15.45,9.12-6.92,13.68-15.53,13.68-25.83,0-9.12-4.31-17.09-12.92-23.93-8.61-6.84-22.29-10.26-41.03-10.26h-67.62v75.47ZM205.35,357.68h89.65c21.1,0,35.96-3.12,44.57-9.37,6.58-4.72,9.88-11.48,9.88-20.26,0-10.47-6.5-20.77-19.5-30.9-13-10.13-31.66-15.2-55.97-15.2h-68.63v75.72Z" fill="#000" stroke-width="0"/></svg>